<?xml version="1.0" encoding="UTF-8"?>
<svg width="120px" height="120px" viewBox="0 0 120 120" version="1.1" xmlns="http://www.w3.org/2000/svg">
    <g stroke="none" stroke-width="1" fill="none" fill-rule="evenodd">
        <path d="M30,10 C40,10 50,20 60,30 C70,20 80,10 90,10 C100,10 110,20 110,30 C110,40 100,50 90,60 C100,70 110,80 110,90 C110,100 100,110 90,110 C80,110 70,100 60,90 C50,100 40,110 30,110 C20,110 10,100 10,90 C10,80 20,70 30,60 C20,50 10,40 10,30 C10,20 20,10 30,10 Z" fill="#c8a45c" fill-rule="nonzero"></path>
    </g>
</svg>
