<svg xmlns="http://www.w3.org/2000/svg" version="1.1" xmlns:xlink="http://www.w3.org/1999/xlink" width="512" height="512" x="0" y="0" viewBox="0 0 512 512" style="enable-background:new 0 0 512 512" xml:space="preserve" class=""><g><g data-name="37 Forbidden"><path fill="#f1f2f2" d="M422.31 146.08V263.4A123.49 123.49 0 1 0 375.08 501H47.42c-18.78 0-34-18.25-34-40.74V45a34 34 0 0 1 34-34H286v110.67a24.42 24.42 0 0 0 24.42 24.42h111.89z" opacity="1" data-original="#f1f2f2" class=""></path><path fill="#f1f2f2" d="M422.31 365.39v68.84a73.72 73.72 0 0 1-78.84 10zM406.7 310.78l-98.34 98.34a73.83 73.83 0 0 1 98.34-98.34z" opacity="1" data-original="#f1f2f2" class=""></path><path fill="#f26a69" d="M286 11v110.67a24.41 24.41 0 0 0 24.41 24.41h112zM375.08 254a123.5 123.5 0 1 0 123.5 123.5A123.63 123.63 0 0 0 375.08 254zm0 49.65a73.44 73.44 0 0 1 31.62 7.12l-98.34 98.34a73.83 73.83 0 0 1 66.72-105.46zm0 147.69a73.43 73.43 0 0 1-31.61-7.12l98.34-98.34a73.83 73.83 0 0 1-66.73 105.46z" opacity="1" data-original="#f26a69"></path><path fill="#e4e4e8" d="M281 501H47.42c-18.78 0-34-18.25-34-40.74V217.65A501.6 501.6 0 0 0 281 501z" opacity="1" data-original="#e4e4e8" class=""></path><g fill="#010101"><path d="M375.08 507H47.42c-22.06 0-40-21-40-46.74v-229.8a6 6 0 0 1 12 0v229.8c0 19.15 12.56 34.74 28 34.74h273.23a129.68 129.68 0 0 1-75.06-117.49c0-71.41 58.09-129.5 129.49-129.5a128.52 128.52 0 0 1 41.23 6.73V152.09H310.37A30.46 30.46 0 0 1 280 121.67V17H47.42a28 28 0 0 0-28 28v138.66a6 6 0 0 1-12 0V45a40 40 0 0 1 40-40H286a6 6 0 0 1 6 6v110.67a18.44 18.44 0 0 0 18.42 18.42H421.8a6 6 0 0 1 6.51 6V263.4a6 6 0 0 1-8.3 5.54 116.42 116.42 0 0 0-44.93-8.94 117.5 117.5 0 0 0 0 235 6 6 0 0 1 0 12z" fill="#010101" opacity="1" data-original="#010101" class=""></path><path d="M13.42 217.56a6 6 0 0 1-6-6v-9a6 6 0 0 1 12 0v9a6 6 0 0 1-6 6zM375.08 457.35a79 79 0 0 1-34.19-7.7 6 6 0 0 1-1.66-9.66l78.84-78.85a6 6 0 0 1 10.24 4.25v68.84a6 6 0 0 1-2.16 4.6 79.83 79.83 0 0 1-51.07 18.52zM354.14 442a67.11 67.11 0 0 0 20.94 3.31 67.9 67.9 0 0 0 41.23-14v-51.44zM308.36 415.12a5.86 5.86 0 0 1-1-.09 6 6 0 0 1-4.4-3.34 78.94 78.94 0 0 1-7.7-34.18 79.94 79.94 0 0 1 79.84-79.85 79.06 79.06 0 0 1 34.2 7.7 6 6 0 0 1 1.66 9.66l-98.36 98.34a6 6 0 0 1-4.24 1.76zm66.72-105.46a67.88 67.88 0 0 0-64.54 88.79L396 313a67.41 67.41 0 0 0-20.92-3.34zM422 152.08H310.36A30.44 30.44 0 0 1 280 121.67V11a6 6 0 0 1 10.22-4.26l136.31 135.07a6 6 0 0 1-3.82 10.25c-.24.02-.51.02-.71.02zM292 25.39v96.28a18.43 18.43 0 0 0 18.41 18.41h97.37z" fill="#010101" opacity="1" data-original="#010101" class=""></path><path d="M375.08 507c-71.4 0-129.49-58.09-129.49-129.5A129.64 129.64 0 0 1 375.08 248c71.41 0 129.5 58.09 129.5 129.49A129.64 129.64 0 0 1 375.08 507zm0-247a117.5 117.5 0 1 0 117.5 117.5A117.63 117.63 0 0 0 375.08 260zm0 197.34a78.88 78.88 0 0 1-34.19-7.71 6 6 0 0 1-1.66-9.66l98.33-98.33a6 6 0 0 1 9.66 1.66 78.88 78.88 0 0 1 7.71 34.19 79.94 79.94 0 0 1-79.85 79.86zM354.14 442a67.11 67.11 0 0 0 20.94 3.31 67.92 67.92 0 0 0 67.85-67.85 67.11 67.11 0 0 0-3.31-20.94zm-45.78-26.92a5.86 5.86 0 0 1-1-.09 6 6 0 0 1-4.4-3.33 79.06 79.06 0 0 1-7.7-34.2 79.94 79.94 0 0 1 79.84-79.84 79.06 79.06 0 0 1 34.2 7.7 6 6 0 0 1 1.66 9.66l-98.36 98.38a6 6 0 0 1-4.24 1.76zm66.72-105.46a67.88 67.88 0 0 0-64.54 88.79L396 313a67.41 67.41 0 0 0-20.92-3.34zM132.68 203.15h-37.5a6 6 0 0 1 0-12h37.5a6 6 0 0 1 0 12zM262.7 203.15h-88a6 6 0 0 1 0-12h88a6 6 0 0 1 0 12zM340.55 203.15h-38.93a6 6 0 0 1 0-12h38.93a6 6 0 0 1 0 12zM120.78 262h-25.6a6 6 0 0 1 0-12h25.6a6 6 0 0 1 0 12zM189.31 262h-39.86a6 6 0 0 1 0-12h39.86a6 6 0 0 1 0 12zM262.7 262h-37.28a6 6 0 1 1 0-12h37.28a6 6 0 1 1 0 12zM160.73 320.85H95.18a6 6 0 0 1 0-12h65.55a6 6 0 1 1 0 12zM226.29 320.85h-41.6a6 6 0 0 1 0-12h41.6a6 6 0 0 1 0 12z" fill="#010101" opacity="1" data-original="#010101" class=""></path></g></g></g></svg>