<?xml version="1.0" encoding="UTF-8"?>
<svg width="24px" height="24px" viewBox="0 0 24 24" version="1.1" xmlns="http://www.w3.org/2000/svg" xmlns:xlink="http://www.w3.org/1999/xlink">
    <title>ZIP File</title>
    <g id="Page-1" stroke="none" stroke-width="1" fill="none" fill-rule="evenodd">
        <g id="zip-file">
            <path d="M14,2 L20,8 L20,20 C20,21.1 19.1,22 18,22 L6,22 C4.9,22 4,21.1 4,20 L4,4 C4,2.9 4.9,2 6,2 L14,2 Z" id="Path" fill="#FFC107" fill-rule="nonzero"></path>
            <path d="M14,2 L14,8 L20,8 L14,2 Z" id="Path" fill="#FFECB3" fill-rule="nonzero"></path>
            <path d="M10,14 L14,14 L14,16 L10,16 L10,14 Z M10,10 L14,10 L14,12 L10,12 L10,10 Z M10,6 L14,6 L14,8 L10,8 L10,6 Z M10,18 L14,18 L14,20 L10,20 L10,18 Z" id="Combined-Shape" fill="#795548"></path>
        </g>
    </g>
</svg>
